<mxfile host="65bd71144e">
    <diagram id="t3F1BNb9Pv0DbTqgw8vE" name="Página-1">
        <mxGraphModel dx="868" dy="714" grid="1" gridSize="10" guides="1" tooltips="1" connect="1" arrows="1" fold="1" page="1" pageScale="1" pageWidth="827" pageHeight="1169" math="0" shadow="0">
            <root>
                <mxCell id="0"/>
                <mxCell id="1" parent="0"/>
                <mxCell id="2" value="Restauración" style="swimlane;fontStyle=1;childLayout=stackLayout;horizontal=1;startSize=30;horizontalStack=0;resizeParent=1;resizeParentMax=0;resizeLast=0;collapsible=1;marginBottom=0;fillColor=none;strokeColor=#b85450;fontColor=#FF0000;" vertex="1" parent="1">
                    <mxGeometry x="40" y="60" width="240" height="80" as="geometry"/>
                </mxCell>
                <mxCell id="3" value="Fecha: 1 tiempo&#10;Descripción: 1 texto&#10;Técnica: 1..* enujm TécnicaRestauración" style="text;strokeColor=none;fillColor=none;align=left;verticalAlign=middle;spacingLeft=4;spacingRight=4;overflow=hidden;points=[[0,0.5],[1,0.5]];portConstraint=eastwest;rotatable=0;fontColor=#FF0000;" vertex="1" parent="2">
                    <mxGeometry y="30" width="240" height="50" as="geometry"/>
                </mxCell>
                <mxCell id="6" value="Objeto" style="swimlane;fontStyle=1;childLayout=stackLayout;horizontal=1;startSize=30;horizontalStack=0;resizeParent=1;resizeParentMax=0;resizeLast=0;collapsible=1;marginBottom=0;fillColor=none;" vertex="1" parent="1">
                    <mxGeometry x="310" y="170" width="170" height="150" as="geometry"/>
                </mxCell>
                <mxCell id="7" value="Código: 1..* texto&#10;Nombre: 1 texto&#10;Autor: 1 texto&#10;Fecha de creación: 1 Tiempo&#10;Descripción: 0..1 texto&#10;Origen: 1 enum lugar&#10;Estado: 1 enum estado&#10;Temática: 1..* enum temática" style="text;strokeColor=none;fillColor=none;align=left;verticalAlign=middle;spacingLeft=4;spacingRight=4;overflow=hidden;points=[[0,0.5],[1,0.5]];portConstraint=eastwest;rotatable=0;fontColor=#000000;" vertex="1" parent="6">
                    <mxGeometry y="30" width="170" height="120" as="geometry"/>
                </mxCell>
                <mxCell id="10" value="u1: Ubicación" style="swimlane;fontStyle=1;childLayout=stackLayout;horizontal=1;startSize=30;horizontalStack=0;resizeParent=1;resizeParentMax=0;resizeLast=0;collapsible=1;marginBottom=0;fillColor=none;" vertex="1" parent="1">
                    <mxGeometry x="600" y="240" width="140" height="60" as="geometry"/>
                </mxCell>
                <mxCell id="11" value="Código: 1 texto" style="text;strokeColor=none;fillColor=none;align=left;verticalAlign=middle;spacingLeft=4;spacingRight=4;overflow=hidden;points=[[0,0.5],[1,0.5]];portConstraint=eastwest;rotatable=0;" vertex="1" parent="10">
                    <mxGeometry y="30" width="140" height="30" as="geometry"/>
                </mxCell>
                <mxCell id="14" value="Almacén" style="swimlane;fontStyle=1;childLayout=stackLayout;horizontal=1;startSize=30;horizontalStack=0;resizeParent=1;resizeParentMax=0;resizeLast=0;collapsible=1;marginBottom=0;fillColor=none;" vertex="1" parent="1">
                    <mxGeometry x="670" y="460" width="140" height="60" as="geometry"/>
                </mxCell>
                <mxCell id="15" value="Nombre: 1 texto" style="text;strokeColor=none;fillColor=none;align=left;verticalAlign=middle;spacingLeft=4;spacingRight=4;overflow=hidden;points=[[0,0.5],[1,0.5]];portConstraint=eastwest;rotatable=0;" vertex="1" parent="14">
                    <mxGeometry y="30" width="140" height="30" as="geometry"/>
                </mxCell>
                <mxCell id="18" value="Sala" style="swimlane;fontStyle=1;childLayout=stackLayout;horizontal=1;startSize=30;horizontalStack=0;resizeParent=1;resizeParentMax=0;resizeLast=0;collapsible=1;marginBottom=0;fillColor=none;" vertex="1" parent="1">
                    <mxGeometry x="440" y="460" width="200" height="80" as="geometry"/>
                </mxCell>
                <mxCell id="19" value="Nombre: 1 texto&#10;Está abierta al público: 1 booleano" style="text;strokeColor=none;fillColor=none;align=left;verticalAlign=middle;spacingLeft=4;spacingRight=4;overflow=hidden;points=[[0,0.5],[1,0.5]];portConstraint=eastwest;rotatable=0;" vertex="1" parent="18">
                    <mxGeometry y="30" width="200" height="50" as="geometry"/>
                </mxCell>
                <mxCell id="22" value="Planta" style="swimlane;fontStyle=1;childLayout=stackLayout;horizontal=1;startSize=30;horizontalStack=0;resizeParent=1;resizeParentMax=0;resizeLast=0;collapsible=1;marginBottom=0;fillColor=none;" vertex="1" parent="1">
                    <mxGeometry x="320" y="620" width="140" height="60" as="geometry"/>
                </mxCell>
                <mxCell id="23" value="Número: 1 número" style="text;strokeColor=none;fillColor=none;align=left;verticalAlign=middle;spacingLeft=4;spacingRight=4;overflow=hidden;points=[[0,0.5],[1,0.5]];portConstraint=eastwest;rotatable=0;" vertex="1" parent="22">
                    <mxGeometry y="30" width="140" height="30" as="geometry"/>
                </mxCell>
                <mxCell id="26" value="Colección" style="swimlane;fontStyle=1;childLayout=stackLayout;horizontal=1;startSize=30;horizontalStack=0;resizeParent=1;resizeParentMax=0;resizeLast=0;collapsible=1;marginBottom=0;fillColor=none;" vertex="1" parent="1">
                    <mxGeometry x="40" y="210" width="140" height="80" as="geometry"/>
                </mxCell>
                <mxCell id="27" value="Nombre: 1 texto&#10;Descripción: 1 texto" style="text;strokeColor=none;fillColor=none;align=left;verticalAlign=middle;spacingLeft=4;spacingRight=4;overflow=hidden;points=[[0,0.5],[1,0.5]];portConstraint=eastwest;rotatable=0;" vertex="1" parent="26">
                    <mxGeometry y="30" width="140" height="50" as="geometry"/>
                </mxCell>
                <mxCell id="30" value="Colección Temporal" style="swimlane;fontStyle=1;childLayout=stackLayout;horizontal=1;startSize=30;horizontalStack=0;resizeParent=1;resizeParentMax=0;resizeLast=0;collapsible=1;marginBottom=0;fillColor=none;" vertex="1" parent="1">
                    <mxGeometry x="40" y="360" width="160" height="80" as="geometry"/>
                </mxCell>
                <mxCell id="31" value="Fecha de inicio: 1 Tiempo&#10;Fecha de fin: 1 tiempo" style="text;strokeColor=none;fillColor=none;align=left;verticalAlign=middle;spacingLeft=4;spacingRight=4;overflow=hidden;points=[[0,0.5],[1,0.5]];portConstraint=eastwest;rotatable=0;" vertex="1" parent="30">
                    <mxGeometry y="30" width="160" height="50" as="geometry"/>
                </mxCell>
                <mxCell id="34" value="Edificio" style="swimlane;fontStyle=1;childLayout=stackLayout;horizontal=1;startSize=30;horizontalStack=0;resizeParent=1;resizeParentMax=0;resizeLast=0;collapsible=1;marginBottom=0;fillColor=none;" vertex="1" parent="1">
                    <mxGeometry x="100" y="620" width="140" height="70" as="geometry"/>
                </mxCell>
                <mxCell id="35" value="Nombre: 1 texto&#10;Dirección: 1 texto" style="text;strokeColor=none;fillColor=none;align=left;verticalAlign=middle;spacingLeft=4;spacingRight=4;overflow=hidden;points=[[0,0.5],[1,0.5]];portConstraint=eastwest;rotatable=0;" vertex="1" parent="34">
                    <mxGeometry y="30" width="140" height="40" as="geometry"/>
                </mxCell>
            </root>
        </mxGraphModel>
    </diagram>
</mxfile>